<?xml version="1.0" encoding="UTF-8" standalone="no"?>
<svg
   width="35"
   height="35"
   viewBox="0 0 35 35"
   fill="none"
   version="1.1"
   id="svg29"
   sodipodi:docname="logo.svg"
   xml:space="preserve"
   inkscape:version="1.4 (e7c3feb1, 2024-10-09)"
   xmlns:inkscape="http://www.inkscape.org/namespaces/inkscape"
   xmlns:sodipodi="http://sodipodi.sourceforge.net/DTD/sodipodi-0.dtd"
   xmlns="http://www.w3.org/2000/svg"
   xmlns:svg="http://www.w3.org/2000/svg"><sodipodi:namedview
     id="namedview29"
     pagecolor="#ffffff"
     bordercolor="#000000"
     borderopacity="0.25"
     inkscape:showpageshadow="2"
     inkscape:pageopacity="0.0"
     inkscape:pagecheckerboard="0"
     inkscape:deskcolor="#d1d1d1"
     inkscape:zoom="13.447018"
     inkscape:cx="15.80276"
     inkscape:cy="22.346962"
     inkscape:window-width="1192"
     inkscape:window-height="1332"
     inkscape:window-x="1146"
     inkscape:window-y="25"
     inkscape:window-maximized="0"
     inkscape:current-layer="g1" /><defs
     id="defs29"><linearGradient
       id="paint0_linear_3363_47878"
       x1="7.15866"
       y1="25.9031"
       x2="15.2969"
       y2="25.9031"
       gradientUnits="userSpaceOnUse"><stop
         stop-color="#B0D1FF"
         id="stop10" /><stop
         offset="1"
         stop-color="#4F93FF"
         id="stop11" /></linearGradient><linearGradient
       id="paint1_linear_3363_47878"
       x1="-0.000112109"
       y1="18.5454"
       x2="8.35733"
       y2="18.5454"
       gradientUnits="userSpaceOnUse"><stop
         stop-color="#B0D1FF"
         id="stop12" /><stop
         offset="1"
         stop-color="#4F93FF"
         id="stop13" /></linearGradient><linearGradient
       id="paint2_linear_3363_47878"
       x1="18.0062"
       y1="31.0963"
       x2="18.3599"
       y2="-5.68908"
       gradientUnits="userSpaceOnUse"><stop
         stop-color="#0058D4"
         id="stop14"
         offset="0"
         style="stop-color:#8dc23e;stop-opacity:1;" /><stop
         offset="1"
         stop-color="#00245B"
         id="stop15"
         style="stop-color:#8dc23e;stop-opacity:1;" /></linearGradient><linearGradient
       id="paint3_linear_3363_47878"
       x1="17.8538"
       y1="8.0426"
       x2="17.7359"
       y2="17.8641"
       gradientUnits="userSpaceOnUse"><stop
         id="stop16"
         offset="0" /><stop
         offset="1"
         stop-color="#B0D1FF"
         id="stop17"
         style="stop-color:#00ffff;stop-opacity:1;" /></linearGradient><linearGradient
       id="paint4_linear_3363_47878"
       x1="11.7902"
       y1="25.1458"
       x2="27.9273"
       y2="25.1458"
       gradientUnits="userSpaceOnUse"><stop
         stop-color="#001334"
         id="stop18" /><stop
         offset="1"
         stop-color="#00245B"
         id="stop19" /></linearGradient><linearGradient
       id="paint5_linear_3363_47878"
       x1="4.558"
       y1="17.1057"
       x2="23.8613"
       y2="17.1057"
       gradientUnits="userSpaceOnUse"><stop
         stop-color="#001334"
         id="stop20" /><stop
         offset="1"
         stop-color="#00245B"
         id="stop21" /></linearGradient><linearGradient
       id="paint6_linear_3363_47878"
       x1="7.92526"
       y1="24.2753"
       x2="27.2424"
       y2="24.2753"
       gradientUnits="userSpaceOnUse"><stop
         stop-color="#0065FF"
         id="stop22" /><stop
         offset="1"
         stop-color="#00C4F7"
         id="stop23" /></linearGradient><linearGradient
       id="paint7_linear_3363_47878"
       x1="0.478772"
       y1="16.2332"
       x2="23.1752"
       y2="16.2332"
       gradientUnits="userSpaceOnUse"><stop
         stop-color="#0065FF"
         id="stop24" /><stop
         offset="1"
         stop-color="#00C4F7"
         id="stop25" /></linearGradient><linearGradient
       id="paint8_linear_3363_47878"
       x1="24.7575"
       y1="18.6926"
       x2="20.9552"
       y2="24.9214"
       gradientUnits="userSpaceOnUse"><stop
         id="stop26" /><stop
         offset="1"
         stop-color="#B0D1FF"
         id="stop27" /></linearGradient><linearGradient
       id="paint9_linear_3363_47878"
       x1="17.4127"
       y1="14.6288"
       x2="12.9226"
       y2="20.3205"
       gradientUnits="userSpaceOnUse"><stop
         id="stop28" /><stop
         offset="1"
         stop-color="#B0D1FF"
         id="stop29" /></linearGradient><linearGradient
       id="paint2_linear_3363_47878-6"
       x1="30.006187"
       y1="26.793877"
       x2="6.3599105"
       y2="-1.3866563"
       gradientUnits="userSpaceOnUse"><stop
         stop-color="#0058D4"
         id="stop14-2"
         offset="0.18451025"
         style="stop-color:#31393c;stop-opacity:1;" /><stop
         offset="1"
         stop-color="#00245B"
         id="stop15-5"
         style="stop-color:#31393c;stop-opacity:1;" /></linearGradient></defs><ellipse
     style="fill:#8dc23e;fill-opacity:1;stroke-width:0.964297"
     id="path32"
     ry="0.7920776"
     rx="2.5565"
     cy="14.761078"
     cx="20.126225" /><path
     id="path0"
     d=""
     stroke="none"
     fill="#000000"
     fill-rule="evenodd" /><path
     id="path0-5"
     d=""
     stroke="none"
     fill="#000000"
     fill-rule="evenodd" /><g
     id="g46"
     transform="matrix(0.04601096,0,0,0.04283229,6.8510208,7.4251489)"><path
       d="m 0,0 c 16.598078,-0.62356493 31.067402,1.1999723 47.041048,5.5747623 2.208606,0.5791797 4.417965,1.1554915 6.628006,1.7291718 5.845983,1.5255055 11.681195,3.0888019 17.514992,4.6601719 6.068758,1.627262 12.147083,3.217952 18.224678,4.811828 9.719833,2.553117 19.434536,5.124831 29.145506,7.711426 12.16611,3.239178 24.34524,6.425652 36.53369,9.57959 0.85796,0.222125 1.71591,0.444249 2.59987,0.673105 3.30967,0.856861 6.61938,1.713553 9.92923,2.569701 7.35958,1.90404 14.71625,3.819124 22.0714,5.74019 1.82993,0.477932 3.65998,0.955391 5.49003,1.432821 2.20875,0.577138 4.41678,1.157018 6.62401,1.739945 2.51844,0.65866 5.0386,1.302152 7.5636,1.93457 1.38208,0.352629 2.76414,0.705329 4.14618,1.058105 1.25785,0.315901 2.51571,0.631802 3.81168,0.957276 0.95724,0.311872 1.91447,0.623745 2.90072,0.945068 0.33,0.66 0.66,1.32 1,2 -1.57576,-0.01571 -1.57576,-0.01571 -3.18335,-0.03174 C 123.85414,52.23295 37.414118,78.8983 -36.775358,138.11773 c -1.022227,0.80953 -2.044453,1.61906 -3.097656,2.45313 -5.643401,4.54012 -11.032401,9.31643 -16.359375,14.22265 -2.106481,1.92528 -4.243134,3.79016 -6.417969,5.63672 -3.710193,3.22825 -7.203278,6.65702 -10.6875,10.125 -0.566543,0.56195 -1.133086,1.1239 -1.716797,1.70288 -3.649104,3.66244 -6.967809,7.43696 -9.962891,11.66431 -2.315637,1.57463 -3.787403,1.13734 -6.464142,0.69513 -5.183541,-1.12955 -10.229052,-2.78132 -15.293672,-4.34748 -1.31958,-0.40385 -2.6393,-0.80723 -3.95917,-1.21015 -2.84798,-0.87048 -5.69496,-1.74416 -8.54119,-2.62035 -4.57025,-1.40685 -9.14265,-2.80662 -13.71546,-4.20514 -4.85685,-1.48567 -9.71359,-2.97171 -14.56964,-4.46002 -11.87354,-3.63863 -23.753,-7.25745 -35.63641,-10.86371 -0.84287,-0.2558 -1.68573,-0.51159 -2.55414,-0.77514 -4.24018,-1.28675 -8.48044,-2.57323 -12.72074,-3.8596 -30.78221,-9.33896 -61.55222,-18.71702 -92.30325,-28.15823 1.82296,-3.93722 4.36932,-6.67424 7.4375,-9.6875 0.53496,-0.52964 1.06992,-1.05929 1.6211,-1.60498 4.19551,-4.0978 8.59279,-7.8652 13.1875,-11.51221 2.82822,-2.254554 5.56825,-4.59407 8.3164,-6.945309 23.11633,-19.263603 49.33935,-35.281184 76.43311,-48.280273 2.07552,-1.00414 4.13555,-2.036203 6.1958,-3.071289 48.40553,-24.004735 103.967907,-37.8929891 157.808592,-41.8984379 0.657099,-0.054946 1.314199,-0.1098926 1.991211,-0.16650391 C -11.862528,0.46137141 -5.9351752,0.25177099 0,0 Z m -101.27536,46.055231 c -2.71223,2.805248 -2.71223,2.805248 -3,6.0625 2.68885,5.377705 6.882334,7.680806 12.464357,9.716309 28.597096,9.303605 67.1315,10.763388 94.8481448,-2.216309 3.2937262,-1.678043 5.2300775,-3.338485 7.1875002,-6.5 0.154746,-2.561898 0.154746,-2.561898 -1.0000002,-5 C -13.127929,28.078847 -77.043836,27.869688 -101.27536,46.055231 Z"
       fill="#ffffff"
       transform="translate(290.77536,87.882269)"
       id="path1" /><path
       d="M 0,0 C 0.90427734,0.00451172 1.8085547,0.00902344 2.7402344,0.01367188 4.9310194,0.02526333 7.1217694,0.04318896 9.3125,0.0625 c -0.66,1.65 -1.32,3.3 -2,5 C 6.751919,5.0969019 6.1913379,5.1313037 5.6137695,5.166748 -87.6948,11.242261 -164.1292,67.550807 -228.1875,131.4375 c -0.85013,0.84611 -0.85013,0.84611 -1.71744,1.70932 -6.14731,6.12526 -12.15791,12.3003 -17.78256,18.91568 -1.45446,1.60768 -2.91221,3.2124 -4.375,4.8125 -4.26419,4.73081 -8.31346,9.60661 -12.31055,14.56396 -1.47742,1.82483 -2.96572,3.64047 -4.45507,5.45557 -1.12017,1.36818 -2.23996,2.73668 -3.35938,4.10547 -0.83277,1.01743 -0.83277,1.01743 -1.68237,2.05542 -2.57812,3.17052 -5.10754,6.35641 -7.50904,9.66333 -0.40476,0.55696 -0.80953,1.11391 -1.22656,1.68774 -1.0708,1.49085 -2.12585,2.99297 -3.17969,4.49585 -2.17833,2.47356 -2.68233,2.87061 -5.90234,3.16016 -2.63468,-0.7138 -5.09822,-1.50773 -7.65234,-2.44531 -1.17237,-0.4152 -1.17237,-0.4152 -2.36841,-0.83879 -1.7234,-0.61159 -3.44508,-1.22804 -5.16525,-1.84862 -3.80993,-1.37398 -7.62826,-2.72385 -11.44622,-4.0753 -2.09134,-0.74042 -4.18226,-1.48203 -6.27279,-2.2247 -12.02266,-4.26648 -24.08836,-8.40737 -36.15462,-12.54842 -3.88819,-1.33456 -7.77548,-2.67172 -11.66254,-4.00958 -0.64366,-0.22153 -1.28732,-0.44307 -1.95049,-0.67131 -1.30047,-0.4476 -2.60094,-0.89521 -3.90141,-1.34282 -3.24053,-1.11532 -6.48116,-2.23034 -9.72183,-3.34525 -0.63805,-0.21951 -1.2761,-0.43903 -1.93348,-0.66519 -4.45995,-1.53424 -8.92039,-3.06707 -13.38097,-4.59946 -6.02343,-2.06955 -12.04551,-4.14297 -18.06668,-6.21908 -2.22728,-0.76722 -4.45503,-1.53306 -6.68329,-2.29743 -5.78508,-1.98477 -11.55708,-4.00014 -17.31561,-6.06063 -2.05165,-0.71339 -4.10894,-1.36446 -6.18808,-1.9917 -5.84215,-1.95739 -8.6459,-3.76338 -11.61646,-9.25391 -0.94454,-2.16961 -1.84539,-4.35865 -2.70703,-6.5625 -0.48557,-1.14598 -0.97115,-2.29195 -1.47144,-3.47266 -0.99222,-2.34971 -1.96763,-4.70659 -2.92602,-7.07031 -1.34461,-3.28495 -2.75582,-6.52916 -4.2041,-9.76953 -0.84196,-1.89547 -1.68315,-3.79129 -2.52344,-5.6875 -0.39147,-0.88301 -0.78294,-1.76602 -1.18628,-2.67578 -0.34716,-0.80824 -0.69432,-1.61649 -1.052,-2.44922 -0.30591,-0.703828 -0.61182,-1.407656 -0.927,-2.132813 -0.52222,-1.742187 -0.52222,-1.742187 0.47778,-3.742187 12.98283,4.31976 25.96506,8.64131 38.9466,12.96493 6.03291,2.00926 12.06599,4.01798 18.09954,6.0253 33.09246,11.01027 66.14164,22.13477 99.10951,33.51285 3.55127,1.22286 7.10584,2.43578 10.66198,3.64438 1.73134,0.59163 3.4607,1.18905 5.18847,1.79102 2.61451,0.90951 5.23481,1.79998 7.85718,2.68652 0.76944,0.27264 1.53887,0.54527 2.33162,0.82617 4.00122,1.35818 4.00122,1.35818 8.1093,0.92261 1.89181,-1.53257 3.41066,-3.10317 4.96533,-4.97925 9.34454,-11.03089 19.3878,-21.41441 30.1958,-31.01269 2.29704,-2.06829 4.5407,-4.19222 6.79151,-6.31055 6.36772,-5.98201 12.91876,-11.61177 19.74316,-17.07129 1.20335,-0.992942 2.40507,-1.987865 3.60547,-2.984375 9.82009,-8.124893 19.94809,-15.715205 30.39453,-23.015625 0.61102,-0.428452 1.22203,-0.856904 1.85156,-1.29834 27.41205,-19.091631 57.16728,-35.233901 88.14844,-47.70166 0.87334,-0.352559 1.74668,-0.705117 2.64648,-1.068359 C -69.547772,8.4766919 -34.058747,-0.33116209 0,0 Z"
       fill="#ffffff"
       transform="translate(497.6875,150.9375)"
       id="path2" /><path
       d="M 0,0 C -0.33,1.65 -0.66,3.3 -1,5 -1.6170581,5.1398633 -2.2341162,5.2797266 -2.869873,5.4238281 -23.754664,10.225728 -43.112359,16.854849 -62,27 c -0.70689,0.373506 -1.413779,0.747012 -2.14209,1.131836 C -80.351826,36.721244 -95.520768,46.742688 -110,58 c -1.11719,0.859375 -2.23438,1.71875 -3.35156,2.578125 -12.13929,9.389906 -23.72908,19.376401 -34.95264,29.84375 -1.90432,1.772178 -3.81803,3.53399 -5.73096,5.296875 -8.79524,8.14645 -17.16524,16.54735 -25.24121,25.40479 -1.7794,1.93717 -3.57983,3.85255 -5.38769,5.76318 -5.90586,6.24637 -11.63614,12.52784 -17.00391,19.25 -2.82207,3.46496 -5.76143,6.81592 -8.70703,10.17578 -5.60551,6.42261 -10.93093,13.01468 -16.13574,19.76416 -1.63483,2.11135 -3.28374,4.2112 -4.93457,6.31006 -6.65587,8.47717 -13.14272,17.03031 -19.32276,25.86035 -1.24845,1.77643 -2.50995,3.5429 -3.7749,5.30762 -5.03988,7.05619 -9.96442,14.17917 -14.78515,21.38672 -0.95269,1.42067 -1.90541,2.84133 -2.85816,4.26196 -1.90642,2.8435 -3.80172,5.69403 -5.69189,8.54834 -0.88529,1.3226 -1.77094,2.64495 -2.65699,3.96704 -0.40579,0.619 -0.81158,1.23799 -1.22967,1.87575 -2.89444,4.29192 -2.89444,4.29192 -6.23517,5.4055 -2.1772,-0.59383 -2.1772,-0.59383 -4.75122,-1.62036 -0.9742,-0.38311 -1.9484,-0.76623 -2.95212,-1.16095 -1.0634,-0.42924 -2.12681,-0.85848 -3.22244,-1.30072 -1.114,-0.44092 -2.228,-0.88184 -3.37576,-1.33612 -3.04031,-1.20511 -6.07722,-2.41836 -9.1129,-3.63506 -3.17751,-1.27111 -6.35929,-2.53141 -9.54088,-3.79225 -3.89303,-1.54346 -7.78571,-3.08779 -11.67656,-4.63673 -10.9711,-4.36752 -21.96342,-8.67947 -32.96446,-12.97097 -2.82515,-1.10309 -5.64916,-2.20907 -8.47275,-3.31613 -7.83664,-3.07206 -15.67478,-6.13886 -23.53279,-9.15593 -3.12008,-1.19898 -6.23721,-2.40549 -9.35396,-3.61308 -1.42435,-0.54941 -2.85015,-1.09504 -4.27753,-1.63654 -1.92861,-0.73175 -3.85187,-1.47614 -5.77444,-2.2236 -1.0688,-0.40911 -2.13759,-0.81823 -3.23877,-1.23974 -5.75127,-2.84453 -7.85531,-7.10616 -10.35498,-12.79541 -0.32254,-0.71496 -0.64508,-1.42991 -0.97739,-2.16652 -1.02392,-2.2754 -2.035,-4.55625 -3.04605,-6.83739 -0.68669,-1.52966 -1.37418,-3.05896 -2.0625,-4.58789 C -441.94664,169.2588 -441.94664,169.2588 -444,164 c 5.27638,0.64792 9.85303,2.28802 14.77734,4.18359 0.8616,0.32661 1.7232,0.65323 2.6109,0.98973 2.85183,1.08269 5.70053,2.17338 8.54926,3.26418 2.02172,0.76949 4.04362,1.53852 6.06567,2.30713 6.33534,2.41048 12.66636,4.83216 18.99683,7.25537 1.97069,0.75378 3.94139,1.50753 5.91211,2.26123 7.68766,2.94086 15.37445,5.88398 23.05908,8.83276 17.23802,6.6135 34.49683,13.17177 51.76196,19.71412 2.00171,0.75927 4.00342,1.51855 6.00513,2.27783 1.33915,0.50666 1.33915,0.50666 2.70535,1.02356 5.87919,2.2309 11.72532,4.53669 17.55637,6.8905 0.44794,-1.16717 0.44794,-1.16717 0.90492,-2.35793 1.16213,-2.80383 2.55271,-4.83282 4.40367,-7.23191 0.65896,-0.85957 1.31791,-1.71913 1.99683,-2.60474 0.70359,-0.90516 1.40717,-1.81033 2.13208,-2.74292 1.08535,-1.40899 1.08535,-1.40899 2.19263,-2.84644 2.11687,-2.74373 4.24194,-5.48089 6.36987,-8.21606 0.53432,-0.68933 1.06863,-1.37865 1.61914,-2.08887 13.66236,-17.61529 27.76854,-34.86527 42.91602,-51.22754 2.113,-2.30053 4.17589,-4.63018 6.21484,-6.99609 2.71014,-3.12957 5.57927,-6.03731 8.53125,-8.9375 1.66102,-1.69122 3.18936,-3.43971 4.71875,-5.25 7.5562,-8.75559 15.95085,-17.1191 24.79297,-24.574219 2.57722,-2.248794 5.05644,-4.588845 7.5437,-6.936279 5.84309,-5.513858 11.73463,-10.853952 18.0188,-15.868408 2.76329,-2.216349 5.45009,-4.509191 8.14453,-6.808594 11.84917,-9.889736 24.47007,-19.046022 37.5,-27.3125 0.62068,-0.397192 1.24137,-0.794385 1.88086,-1.203613 C -80.711911,23.609915 -53.492209,9.8369267 -24,3 -23.316958,2.8391895 -22.633916,2.6783789 -21.930176,2.5126953 -14.57846,0.81520311 -7.5712913,-0.39848901 0,0 Z"
       fill="#ffffff"
       transform="translate(500,165)"
       id="path3-7" /></g><g
     style="fill:none"
     id="g1"
     transform="translate(0.18992302,0.07993691)"><rect
       style="opacity:1;fill:#52514d;fill-opacity:1;fill-rule:nonzero;stroke-width:1.16607"
       id="rect33"
       width="34.982517"
       height="34.982517"
       x="-0.16456018"
       y="-0.054110393"
       ry="6.9373527" /><g
       opacity="0.44"
       id="g6"><path
         d="m 11.7896,29.0065 c -11.97952302,-29.08643691 -11.97952302,-29.08643691 0,0 z"
         fill="url(#paint4_linear_3363_47878)"
         id="path5"
         style="fill:url(#paint4_linear_3363_47878)"
         sodipodi:nodetypes="cc" /><path
         d="m 4.55762,21.6703 c -4.74754302,-21.75023691 -4.74754302,-21.75023691 0,0 z"
         fill="url(#paint5_linear_3363_47878)"
         id="path6"
         style="fill-opacity:1"
         sodipodi:nodetypes="cc" /></g><path
       d="m 10.4794,28.1576 c -10.66932302,-28.23753691 -10.66932302,-28.23753691 0,0 z"
       fill="url(#paint6_linear_3363_47878)"
       id="path7"
       style="fill-opacity:1"
       sodipodi:nodetypes="ss" /><path
       d="M 16.7701,12.6683 14.1093,11.054 Z"
       fill="url(#paint7_linear_3363_47878)"
       id="path8"
       style="fill-opacity:1"
       sodipodi:nodetypes="ccc" /><g
       opacity="0.5"
       id="g10"><path
         opacity="0.78"
         d="m 20.4238,19.9932 c 0,0 3.428346,3.244392 0,0 z"
         fill="url(#paint8_linear_3363_47878)"
         id="path9"
         style="fill-opacity:1"
         sodipodi:nodetypes="cc" /><path
         opacity="0.78"
         d="m 12.631,18.3048 c -12.82092302,-18.38473691 -12.82092302,-18.38473691 0,0 z"
         fill="url(#paint9_linear_3363_47878)"
         id="path10"
         style="fill-opacity:1"
         sodipodi:nodetypes="cc" /></g><g
       id="g2"
       transform="matrix(0.05516744,0,0,0.05244424,3.6619675,4.9072644)"><path
         d="m 0,0 c 16.598078,-0.62356493 31.067402,1.1999723 47.041048,5.5747623 2.208606,0.5791797 4.417965,1.1554915 6.628006,1.7291718 5.845983,1.5255055 11.681195,3.0888019 17.514992,4.6601719 6.068758,1.627262 12.147083,3.217952 18.224678,4.811828 9.719833,2.553117 19.434536,5.124831 29.145506,7.711426 12.16611,3.239178 24.34524,6.425652 36.53369,9.57959 0.85796,0.222125 1.71591,0.444249 2.59987,0.673105 3.30967,0.856861 6.61938,1.713553 9.92923,2.569701 7.35958,1.90404 14.71625,3.819124 22.0714,5.74019 1.82993,0.477932 3.65998,0.955391 5.49003,1.432821 2.20875,0.577138 4.41678,1.157018 6.62401,1.739945 2.51844,0.65866 5.0386,1.302152 7.5636,1.93457 1.38208,0.352629 2.76414,0.705329 4.14618,1.058105 1.25785,0.315901 2.51571,0.631802 3.81168,0.957276 0.95724,0.311872 1.91447,0.623745 2.90072,0.945068 0.33,0.66 0.66,1.32 1,2 -1.57576,-0.01571 -1.57576,-0.01571 -3.18335,-0.03174 C 123.85414,52.23295 37.414118,78.8983 -36.775358,138.11773 c -1.022227,0.80953 -2.044453,1.61906 -3.097656,2.45313 -5.643401,4.54012 -11.032401,9.31643 -16.359375,14.22265 -2.106481,1.92528 -4.243134,3.79016 -6.417969,5.63672 -3.710193,3.22825 -7.203278,6.65702 -10.6875,10.125 -0.566543,0.56195 -1.133086,1.1239 -1.716797,1.70288 -3.649104,3.66244 -6.967809,7.43696 -9.962891,11.66431 -2.315637,1.57463 -3.787403,1.13734 -6.464142,0.69513 -5.183541,-1.12955 -10.229052,-2.78132 -15.293672,-4.34748 -1.31958,-0.40385 -2.6393,-0.80723 -3.95917,-1.21015 -2.84798,-0.87048 -5.69496,-1.74416 -8.54119,-2.62035 -4.57025,-1.40685 -9.14265,-2.80662 -13.71546,-4.20514 -4.85685,-1.48567 -9.71359,-2.97171 -14.56964,-4.46002 -11.87354,-3.63863 -23.753,-7.25745 -35.63641,-10.86371 -0.84287,-0.2558 -1.68573,-0.51159 -2.55414,-0.77514 -4.24018,-1.28675 -8.48044,-2.57323 -12.72074,-3.8596 -30.78221,-9.33896 -61.55222,-18.71702 -92.30325,-28.15823 1.82296,-3.93722 4.36932,-6.67424 7.4375,-9.6875 0.53496,-0.52964 1.06992,-1.05929 1.6211,-1.60498 4.19551,-4.0978 8.59279,-7.8652 13.1875,-11.51221 2.82822,-2.254554 5.56825,-4.59407 8.3164,-6.945309 23.11633,-19.263603 49.33935,-35.281184 76.43311,-48.280273 2.07552,-1.00414 4.13555,-2.036203 6.1958,-3.071289 48.40553,-24.004735 103.967907,-37.8929891 157.808592,-41.8984379 0.657099,-0.054946 1.314199,-0.1098926 1.991211,-0.16650391 C -11.862528,0.46137141 -5.9351752,0.25177099 0,0 Z m -101.27536,46.055231 c -2.71223,2.805248 -2.71223,2.805248 -3,6.0625 2.68885,5.377705 6.882334,7.680806 12.464357,9.716309 28.597096,9.303605 67.1315,10.763388 94.8481448,-2.216309 3.2937262,-1.678043 5.2300775,-3.338485 7.1875002,-6.5 0.154746,-2.561898 0.154746,-2.561898 -1.0000002,-5 C -13.127929,28.078847 -77.043836,27.869688 -101.27536,46.055231 Z"
         fill="#ffffff"
         transform="translate(290.77536,87.882269)"
         id="path1-9" /><path
         d="M 0,0 C 0.90427734,0.00451172 1.8085547,0.00902344 2.7402344,0.01367188 4.9310194,0.02526333 7.1217694,0.04318896 9.3125,0.0625 c -0.66,1.65 -1.32,3.3 -2,5 C 6.751919,5.0969019 6.1913379,5.1313037 5.6137695,5.166748 -87.6948,11.242261 -164.1292,67.550807 -228.1875,131.4375 c -0.85013,0.84611 -0.85013,0.84611 -1.71744,1.70932 -6.14731,6.12526 -12.15791,12.3003 -17.78256,18.91568 -1.45446,1.60768 -2.91221,3.2124 -4.375,4.8125 -4.26419,4.73081 -8.31346,9.60661 -12.31055,14.56396 -1.47742,1.82483 -2.96572,3.64047 -4.45507,5.45557 -1.12017,1.36818 -2.23996,2.73668 -3.35938,4.10547 -0.83277,1.01743 -0.83277,1.01743 -1.68237,2.05542 -2.57812,3.17052 -5.10754,6.35641 -7.50904,9.66333 -0.40476,0.55696 -0.80953,1.11391 -1.22656,1.68774 -1.0708,1.49085 -2.12585,2.99297 -3.17969,4.49585 -2.17833,2.47356 -2.68233,2.87061 -5.90234,3.16016 -2.63468,-0.7138 -5.09822,-1.50773 -7.65234,-2.44531 -1.17237,-0.4152 -1.17237,-0.4152 -2.36841,-0.83879 -1.7234,-0.61159 -3.44508,-1.22804 -5.16525,-1.84862 -3.80993,-1.37398 -7.62826,-2.72385 -11.44622,-4.0753 -2.09134,-0.74042 -4.18226,-1.48203 -6.27279,-2.2247 -12.02266,-4.26648 -24.08836,-8.40737 -36.15462,-12.54842 -3.88819,-1.33456 -7.77548,-2.67172 -11.66254,-4.00958 -0.64366,-0.22153 -1.28732,-0.44307 -1.95049,-0.67131 -1.30047,-0.4476 -2.60094,-0.89521 -3.90141,-1.34282 -3.24053,-1.11532 -6.48116,-2.23034 -9.72183,-3.34525 -0.63805,-0.21951 -1.2761,-0.43903 -1.93348,-0.66519 -4.45995,-1.53424 -8.92039,-3.06707 -13.38097,-4.59946 -6.02343,-2.06955 -12.04551,-4.14297 -18.06668,-6.21908 -2.22728,-0.76722 -4.45503,-1.53306 -6.68329,-2.29743 -5.78508,-1.98477 -11.55708,-4.00014 -17.31561,-6.06063 -2.05165,-0.71339 -4.10894,-1.36446 -6.18808,-1.9917 -5.84215,-1.95739 -8.6459,-3.76338 -11.61646,-9.25391 -0.94454,-2.16961 -1.84539,-4.35865 -2.70703,-6.5625 -0.48557,-1.14598 -0.97115,-2.29195 -1.47144,-3.47266 -0.99222,-2.34971 -1.96763,-4.70659 -2.92602,-7.07031 -1.34461,-3.28495 -2.75582,-6.52916 -4.2041,-9.76953 -0.84196,-1.89547 -1.68315,-3.79129 -2.52344,-5.6875 -0.39147,-0.88301 -0.78294,-1.76602 -1.18628,-2.67578 -0.34716,-0.80824 -0.69432,-1.61649 -1.052,-2.44922 -0.30591,-0.703828 -0.61182,-1.407656 -0.927,-2.132813 -0.52222,-1.742187 -0.52222,-1.742187 0.47778,-3.742187 12.98283,4.31976 25.96506,8.64131 38.9466,12.96493 6.03291,2.00926 12.06599,4.01798 18.09954,6.0253 33.09246,11.01027 66.14164,22.13477 99.10951,33.51285 3.55127,1.22286 7.10584,2.43578 10.66198,3.64438 1.73134,0.59163 3.4607,1.18905 5.18847,1.79102 2.61451,0.90951 5.23481,1.79998 7.85718,2.68652 0.76944,0.27264 1.53887,0.54527 2.33162,0.82617 4.00122,1.35818 4.00122,1.35818 8.1093,0.92261 1.89181,-1.53257 3.41066,-3.10317 4.96533,-4.97925 9.34454,-11.03089 19.3878,-21.41441 30.1958,-31.01269 2.29704,-2.06829 4.5407,-4.19222 6.79151,-6.31055 6.36772,-5.98201 12.91876,-11.61177 19.74316,-17.07129 1.20335,-0.992942 2.40507,-1.987865 3.60547,-2.984375 9.82009,-8.124893 19.94809,-15.715205 30.39453,-23.015625 0.61102,-0.428452 1.22203,-0.856904 1.85156,-1.29834 27.41205,-19.091631 57.16728,-35.233901 88.14844,-47.70166 0.87334,-0.352559 1.74668,-0.705117 2.64648,-1.068359 C -69.547772,8.4766919 -34.058747,-0.33116209 0,0 Z"
         fill="#ffffff"
         transform="translate(497.6875,150.9375)"
         id="path2-3" /><path
         d="M 0,0 C -0.33,1.65 -0.66,3.3 -1,5 -1.6170581,5.1398633 -2.2341162,5.2797266 -2.869873,5.4238281 -23.754664,10.225728 -43.112359,16.854849 -62,27 c -0.70689,0.373506 -1.413779,0.747012 -2.14209,1.131836 C -80.351826,36.721244 -95.520768,46.742688 -110,58 c -1.11719,0.859375 -2.23438,1.71875 -3.35156,2.578125 -12.13929,9.389906 -23.72908,19.376401 -34.95264,29.84375 -1.90432,1.772178 -3.81803,3.53399 -5.73096,5.296875 -8.79524,8.14645 -17.16524,16.54735 -25.24121,25.40479 -1.7794,1.93717 -3.57983,3.85255 -5.38769,5.76318 -5.90586,6.24637 -11.63614,12.52784 -17.00391,19.25 -2.82207,3.46496 -5.76143,6.81592 -8.70703,10.17578 -5.60551,6.42261 -10.93093,13.01468 -16.13574,19.76416 -1.63483,2.11135 -3.28374,4.2112 -4.93457,6.31006 -6.65587,8.47717 -13.14272,17.03031 -19.32276,25.86035 -1.24845,1.77643 -2.50995,3.5429 -3.7749,5.30762 -5.03988,7.05619 -9.96442,14.17917 -14.78515,21.38672 -0.95269,1.42067 -1.90541,2.84133 -2.85816,4.26196 -1.90642,2.8435 -3.80172,5.69403 -5.69189,8.54834 -0.88529,1.3226 -1.77094,2.64495 -2.65699,3.96704 -0.40579,0.619 -0.81158,1.23799 -1.22967,1.87575 -2.89444,4.29192 -2.89444,4.29192 -6.23517,5.4055 -2.1772,-0.59383 -2.1772,-0.59383 -4.75122,-1.62036 -0.9742,-0.38311 -1.9484,-0.76623 -2.95212,-1.16095 -1.0634,-0.42924 -2.12681,-0.85848 -3.22244,-1.30072 -1.114,-0.44092 -2.228,-0.88184 -3.37576,-1.33612 -3.04031,-1.20511 -6.07722,-2.41836 -9.1129,-3.63506 -3.17751,-1.27111 -6.35929,-2.53141 -9.54088,-3.79225 -3.89303,-1.54346 -7.78571,-3.08779 -11.67656,-4.63673 -10.9711,-4.36752 -21.96342,-8.67947 -32.96446,-12.97097 -2.82515,-1.10309 -5.64916,-2.20907 -8.47275,-3.31613 -7.83664,-3.07206 -15.67478,-6.13886 -23.53279,-9.15593 -3.12008,-1.19898 -6.23721,-2.40549 -9.35396,-3.61308 -1.42435,-0.54941 -2.85015,-1.09504 -4.27753,-1.63654 -1.92861,-0.73175 -3.85187,-1.47614 -5.77444,-2.2236 -1.0688,-0.40911 -2.13759,-0.81823 -3.23877,-1.23974 -5.75127,-2.84453 -7.85531,-7.10616 -10.35498,-12.79541 -0.32254,-0.71496 -0.64508,-1.42991 -0.97739,-2.16652 -1.02392,-2.2754 -2.035,-4.55625 -3.04605,-6.83739 -0.68669,-1.52966 -1.37418,-3.05896 -2.0625,-4.58789 C -441.94664,169.2588 -441.94664,169.2588 -444,164 c 5.27638,0.64792 9.85303,2.28802 14.77734,4.18359 0.8616,0.32661 1.7232,0.65323 2.6109,0.98973 2.85183,1.08269 5.70053,2.17338 8.54926,3.26418 2.02172,0.76949 4.04362,1.53852 6.06567,2.30713 6.33534,2.41048 12.66636,4.83216 18.99683,7.25537 1.97069,0.75378 3.94139,1.50753 5.91211,2.26123 7.68766,2.94086 15.37445,5.88398 23.05908,8.83276 17.23802,6.6135 34.49683,13.17177 51.76196,19.71412 2.00171,0.75927 4.00342,1.51855 6.00513,2.27783 1.33915,0.50666 1.33915,0.50666 2.70535,1.02356 5.87919,2.2309 11.72532,4.53669 17.55637,6.8905 0.44794,-1.16717 0.44794,-1.16717 0.90492,-2.35793 1.16213,-2.80383 2.55271,-4.83282 4.40367,-7.23191 0.65896,-0.85957 1.31791,-1.71913 1.99683,-2.60474 0.70359,-0.90516 1.40717,-1.81033 2.13208,-2.74292 1.08535,-1.40899 1.08535,-1.40899 2.19263,-2.84644 2.11687,-2.74373 4.24194,-5.48089 6.36987,-8.21606 0.53432,-0.68933 1.06863,-1.37865 1.61914,-2.08887 13.66236,-17.61529 27.76854,-34.86527 42.91602,-51.22754 2.113,-2.30053 4.17589,-4.63018 6.21484,-6.99609 2.71014,-3.12957 5.57927,-6.03731 8.53125,-8.9375 1.66102,-1.69122 3.18936,-3.43971 4.71875,-5.25 7.5562,-8.75559 15.95085,-17.1191 24.79297,-24.574219 2.57722,-2.248794 5.05644,-4.588845 7.5437,-6.936279 5.84309,-5.513858 11.73463,-10.853952 18.0188,-15.868408 2.76329,-2.216349 5.45009,-4.509191 8.14453,-6.808594 11.84917,-9.889736 24.47007,-19.046022 37.5,-27.3125 0.62068,-0.397192 1.24137,-0.794385 1.88086,-1.203613 C -80.711911,23.609915 -53.492209,9.8369267 -24,3 -23.316958,2.8391895 -22.633916,2.6783789 -21.930176,2.5126953 -14.57846,0.81520311 -7.5712913,-0.39848901 0,0 Z"
         fill="#ffffff"
         transform="translate(500,165)"
         id="path3" /></g></g></svg>
